<svg xmlns="http://www.w3.org/2000/svg" viewBox="0 0 221.31 307.72"><title>la liga logo</title><path d="M432.78,405.7a1.1,1.1,0,0,0,.52,1.69L472,429.69l.09,0a1.26,1.26,0,0,0,1.74-.58,50.72,50.72,0,0,1,35.53-24.82,1.1,1.1,0,0,0,1-1.41v-.08l-8.2-43.61v-.08a1.12,1.12,0,0,0-1.39-1h-.1a97.71,97.71,0,0,0-39.29,16.35,96,96,0,0,0-28.55,31.16" transform="translate(-401.35 -358.14)" style="fill:#812c7c;fill-rule:evenodd"/><path d="M410.79,490a1.12,1.12,0,0,0,1.66.64l41.93-15.91.09,0a1.24,1.24,0,0,0,.63-1.71,49.45,49.45,0,0,1,2.75-42.89,1.29,1.29,0,0,0,.13-.45,1.16,1.16,0,0,0-.64-1.16l-.08,0-39.6-20.91-.07,0a1.13,1.13,0,0,0-1.65.44s0,.06-.05.1a95.85,95.85,0,0,0-5.11,82" transform="translate(-401.35 -358.14)" style="fill:#005093;fill-rule:evenodd"/><path d="M463.32,559.09a1.19,1.19,0,0,0,1.24-.35,1.22,1.22,0,0,0,.28-.53L478.15,516l0-.09a1.08,1.08,0,0,0-.75-1.49,50.06,50.06,0,0,1-19.55-10.76,49.29,49.29,0,0,1-13-18,1.12,1.12,0,0,0-1.6-.61l-.06,0L402.2,502.6l-.07,0a1.1,1.1,0,0,0-.68,1.55l0,.1a97.89,97.89,0,0,0,61.81,54.83" transform="translate(-401.35 -358.14)" style="fill:#008fc9;fill-rule:evenodd"/><path d="M551.2,561.45a1.09,1.09,0,0,0,.26-1.74l-25-36.68-.06-.08a1.11,1.11,0,0,0-1.82-.23,51.46,51.46,0,0,1-43,6.86,1.37,1.37,0,0,0-.48,0,1.17,1.17,0,0,0-1,.87l0,.09-11.92,42.6v.07a1.1,1.1,0,0,0,0,.54,1.27,1.27,0,0,0,.82.94l.1,0a98.85,98.85,0,0,0,42.63,2.34,97.59,97.59,0,0,0,39.51-15.57" transform="translate(-401.35 -358.14)" style="fill:#009949;fill-rule:evenodd"/><path d="M608.29,495.47a1.1,1.1,0,0,0-1.23-1.28l-44.86-3.44h-.1a1.24,1.24,0,0,0-1.31,1.27,48.72,48.72,0,0,1-6.29,21,49.56,49.56,0,0,1-15,16.52,1.08,1.08,0,0,0-.24,1.67l0,.07,26.6,35.65,0,.06a1.16,1.16,0,0,0,1.69.3l.09-.06a96.66,96.66,0,0,0,28.4-31.52,94.18,94.18,0,0,0,12.15-40.25" transform="translate(-401.35 -358.14)" style="fill:#fff101;fill-rule:evenodd"/><path d="M591.45,410.16a1.12,1.12,0,0,0-1.78.13l-30.82,32-.07.07a1.22,1.22,0,0,0,.17,1.79,49.3,49.3,0,0,1,12.6,18,48.6,48.6,0,0,1,3.6,21.81,1.3,1.3,0,0,0,.09.45,1.25,1.25,0,0,0,1.07.77h.09l44.74,2.14h.08a1.27,1.27,0,0,0,1.29-1.1v-.11a96.37,96.37,0,0,0-31.05-76" transform="translate(-401.35 -358.14)" style="fill:#e9822c;fill-rule:evenodd"/><path d="M513,370.17a1.09,1.09,0,0,0-1,1.46l6.59,44v.09a1.25,1.25,0,0,0,.91,1,1.2,1.2,0,0,0,.67,0A51.11,51.11,0,0,1,542.52,418a50.56,50.56,0,0,1,19.77,10.74,1.14,1.14,0,0,0,1.72-.14l.06-.06L593.6,395l0-.06a1.26,1.26,0,0,0-.08-1.69l-.08-.07a100.15,100.15,0,0,0-80.43-23" transform="translate(-401.35 -358.14)" style="fill:#d8232a;fill-rule:evenodd"/><path d="M495.12,464.88l15.2-10.83,15.2,10.83-5.81,17.52H500.93l-5.81-17.52Zm42.39,25.7a32.42,32.42,0,0,0,7.14-20.69c0-.36,0-.72,0-1.07a20.55,20.55,0,0,1-2,4.36,21.9,21.9,0,0,0-.77-3,20.53,20.53,0,0,0-4.4-7.63l-10.27,2.06,0-.11,9.59-4.33a20.42,20.42,0,0,0-1-8.57,23.12,23.12,0,0,0-1.17-2.88,20.13,20.13,0,0,1,4.33,2.45,33.19,33.19,0,0,0-19.17-13.74,19.46,19.46,0,0,1,3.8,3.37,23.43,23.43,0,0,0-3.14-.21,21.16,21.16,0,0,0-8.64,1.75l-1.19,10.27h-.12l-1.19-10.26a21.17,21.17,0,0,0-8.65-1.76,23.37,23.37,0,0,0-3.14.21,19,19,0,0,1,3.81-3.37,33.18,33.18,0,0,0-19.18,13.76,19.87,19.87,0,0,1,4.35-2.47,22.07,22.07,0,0,0-1.17,2.88,20.47,20.47,0,0,0-1,8.56l9.61,4.33,0,.11-10.28-2.06a20.57,20.57,0,0,0-4.41,7.64,21.75,21.75,0,0,0-.77,3,20.14,20.14,0,0,1-2-4.39c0,.36,0,.73,0,1.1a33.33,33.33,0,0,0,7.22,20.71,20.81,20.81,0,0,1-.93-4.6,22,22,0,0,0,2.41,2,21.07,21.07,0,0,0,8,3.58l7.19-7.74.1.07L495.08,493a20.93,20.93,0,0,0,6,6.47,23,23,0,0,0,2.66,1.65,22.09,22.09,0,0,1-4.69.54,33.65,33.65,0,0,0,23,0,21.87,21.87,0,0,1-4.68-.54,23.76,23.76,0,0,0,2.67-1.65,20.74,20.74,0,0,0,6-6.47l-5.21-9.1.1-.07,7.19,7.74a21.1,21.1,0,0,0,8-3.58,22.74,22.74,0,0,0,2.42-2,21,21,0,0,1-.93,4.58ZM510.33,433.2a36.7,36.7,0,1,1-7.13.79A36.89,36.89,0,0,1,510.33,433.2Z" transform="translate(-401.35 -358.14)" style="fill:#1a1919;fill-rule:evenodd"/><path d="M495.15,464.88,501,482.4h18.79l5.81-17.52L510.35,454l-15.2,10.83Zm42.37,25.71a21.05,21.05,0,0,0,.93-4.58,22.84,22.84,0,0,1-2.42,2,21.1,21.1,0,0,1-8,3.58l-7.19-7.74-.1.07L526,493a20.74,20.74,0,0,1-6,6.46,23.17,23.17,0,0,1-2.67,1.65,22,22,0,0,0,4.68.54,33.66,33.66,0,0,1-23,0,21.81,21.81,0,0,0,4.69-.54,23.67,23.67,0,0,1-2.66-1.65,20.77,20.77,0,0,1-6-6.47l5.21-9.11-.1-.07L493,491.59a21.07,21.07,0,0,1-8-3.58,22.49,22.49,0,0,1-2.41-2,21,21,0,0,0,.93,4.6,32.35,32.35,0,0,1-7.19-21.81,20.41,20.41,0,0,0,2,4.4,21.49,21.49,0,0,1,.77-3,20.82,20.82,0,0,1,4.41-7.64l10.28,2.06,0-.11-9.61-4.33a20.47,20.47,0,0,1,1-8.56,22.07,22.07,0,0,1,1.17-2.88,19.69,19.69,0,0,0-4.35,2.47,33.18,33.18,0,0,1,19.18-13.76,19.15,19.15,0,0,0-3.81,3.37,23.43,23.43,0,0,1,3.14-.21,21.17,21.17,0,0,1,8.65,1.76l1.19,10.26h.12l1.19-10.27a21.16,21.16,0,0,1,8.64-1.75,23.56,23.56,0,0,1,3.15.21,19.2,19.2,0,0,0-3.8-3.37,33.19,33.19,0,0,1,19.17,13.74,20,20,0,0,0-4.33-2.45,23.34,23.34,0,0,1,1.17,2.88,20.61,20.61,0,0,1,1,8.57l-9.59,4.33,0,.11,10.27-2.06a20.84,20.84,0,0,1,4.4,7.63,22.41,22.41,0,0,1,.77,3,20.32,20.32,0,0,0,2-4.36c0,.35,0,.71,0,1.07a32.41,32.41,0,0,1-7.14,20.69Z" transform="translate(-401.35 -358.14)" style="fill:#fff;fill-rule:evenodd"/><path d="M601.47,622.62a9.63,9.63,0,1,0,3.38,18.64,9.54,9.54,0,0,0,6.16-8.95,9.33,9.33,0,0,0-9.54-9.69Zm-21.88,9.58a20,20,0,0,1,19.49-20.52,15.81,15.81,0,0,1,11.55,4.79v-4h12v39.13H610.41v-3.85a16.53,16.53,0,0,1-12,4.79c-11.18,0-18.82-7.78-18.82-20.34h0ZM554,621.9a8.55,8.55,0,0,0-8.37,9.47,8.42,8.42,0,0,0,8.31,9.27,9,9,0,0,0,9.18-9.22A8.68,8.68,0,0,0,554,621.9Zm-20,9.52c0-10.69,6.82-19.77,17.25-19.77a14.16,14.16,0,0,1,11.83,5.21v-4.44h11.45v34.85c0,12.24-9.2,18.58-20.27,18.58-9.72,0-18.21-4.89-19.49-13.78h13.47a6.12,6.12,0,0,0,6.3,3.22c4.18,0,8-1.93,8-6.24a22.32,22.32,0,0,0-.06-3,17.61,17.61,0,0,1-11.33,4.57c-10.23,0-17.18-8.5-17.18-19.25ZM516.54,651.7V612.27h11.87V651.7Zm-1.15-49.45a7.12,7.12,0,1,1,7,7.19,7,7,0,0,1-7-7.19Zm-4.22,49.45H482.47V602.5h13v38h15.72Zm-56.66-29.08a9.63,9.63,0,0,0-.39,19.25,9.54,9.54,0,0,0,9.93-9.56,9.33,9.33,0,0,0-9.54-9.69Zm-21.86,9.58a20,20,0,0,1,19.49-20.52,15.19,15.19,0,0,1,11.53,4.79v-4h12v39.13H463.48v-3.85a16.53,16.53,0,0,1-12,4.79c-11.18,0-18.82-7.78-18.82-20.34Zm-30.43-29.7h13v38h15.72V651.7H402.24Z" transform="translate(-401.35 -358.14)" style="fill:#1a1919"/></svg>